<?xml version="1.0" encoding="utf-8"?>
<!-- Generator: Adobe Illustrator 27.0.0, SVG Export Plug-In . SVG Version: 6.00 Build 0)  -->
<svg version="1.1" baseProfile="basic" id="Layer_1"
	 xmlns="http://www.w3.org/2000/svg" xmlns:xlink="http://www.w3.org/1999/xlink" x="0px" y="0px" viewBox="0 0 2500 2500"
	 xml:space="preserve">
<style type="text/css">
	.st0{fill:#000;}
</style>
<path class="st0" d="M1262.91,948.5h765.96c0,0,30.63,5,31.63,22V1123c0,0-13,17.5-25,21.5h-630.63c0,0-62.37,27,0.63,63h465.07
	c0,0,161.93,25.49,189.93,143.24l4,162.76c0,0-40.19,144.02-202.1,151.01h-506.55c0,0-45.35-18.01-21.35-38.01l98-151l10-6l8-1
	l318-1c0,0,81-31,0-65l-484,2c0,0-150-17-168-126v-115.67L1244,960.62l10.5-6.12L1262.91,948.5z"/>
<path class="st0" d="M2173.06,948.5h208.48c13.92,0,25.21,11.29,25.21,25.21v665.6c0,13.92-11.29,25.21-25.21,25.21h-208.48
	c-13.92,0-25.21-11.29-25.21-25.21v-665.6C2147.85,959.79,2159.14,948.5,2173.06,948.5z"/>
<path class="st0" d="M1095.5,948.5H334.57c0,0-149.07,16-193.07,131v447.93c0,0,24,122.07,211,137.07h826.67c0,0,22.33,1,33.33-15
	l99-152c0,0,5-24-24-30l-854,1c0,0-32-6-38-31s-2-255-2-255s1-26,31-35l570-2c0,0,20-1,33-15l92-140
	C1119.5,990.5,1141.5,953.5,1095.5,948.5z"/>
</svg>
